<mxfile host="app.diagrams.net" modified="2023-04-03T05:52:51.747Z" agent="Mozilla/5.0 (Windows NT 10.0; Win64; x64) AppleWebKit/537.36 (KHTML, like Gecko) Chrome/109.0.0.0 Safari/537.36" etag="3pAYwKiwKND-MFNcwbbl" version="21.1.2" type="google">
  <diagram name="페이지-1" id="tLWv0ikep6y-0RagZHl3">
    <mxGraphModel grid="1" page="1" gridSize="10" guides="1" tooltips="1" connect="1" arrows="1" fold="1" pageScale="1" pageWidth="827" pageHeight="1169" math="0" shadow="0">
      <root>
        <mxCell id="0" />
        <mxCell id="1" parent="0" />
        <mxCell id="cJ2IQbuwEGZ2H1-RjROX-1" value="&lt;b&gt;바멘텀 사용자&lt;/b&gt;" style="shape=umlActor;verticalLabelPosition=bottom;verticalAlign=top;html=1;outlineConnect=0;" vertex="1" parent="1">
          <mxGeometry x="388" y="90" width="52" height="100" as="geometry" />
        </mxCell>
        <mxCell id="cJ2IQbuwEGZ2H1-RjROX-3" value="피드글 &lt;br&gt;작성,삭제&amp;nbsp;" style="ellipse;whiteSpace=wrap;html=1;" vertex="1" parent="1">
          <mxGeometry x="190" y="345" width="90" height="40" as="geometry" />
        </mxCell>
        <mxCell id="cJ2IQbuwEGZ2H1-RjROX-4" value="검색기능" style="ellipse;whiteSpace=wrap;html=1;" vertex="1" parent="1">
          <mxGeometry x="250" y="450" width="80" height="30" as="geometry" />
        </mxCell>
        <mxCell id="cJ2IQbuwEGZ2H1-RjROX-5" value="자전거 &lt;br&gt;차대번호 등록" style="ellipse;whiteSpace=wrap;html=1;" vertex="1" parent="1">
          <mxGeometry x="360" y="473" width="100" height="37" as="geometry" />
        </mxCell>
        <mxCell id="cJ2IQbuwEGZ2H1-RjROX-6" value="배너광고 및 음악추천" style="ellipse;whiteSpace=wrap;html=1;" vertex="1" parent="1">
          <mxGeometry x="440" y="400" width="120" height="40" as="geometry" />
        </mxCell>
        <mxCell id="cJ2IQbuwEGZ2H1-RjROX-7" value="로그인기능" style="ellipse;whiteSpace=wrap;html=1;" vertex="1" parent="1">
          <mxGeometry x="20" y="350" width="100" height="40" as="geometry" />
        </mxCell>
        <mxCell id="cJ2IQbuwEGZ2H1-RjROX-8" value="좋아요 추가 및 삭제 기능" style="ellipse;whiteSpace=wrap;html=1;" vertex="1" parent="1">
          <mxGeometry x="530" y="310" width="80" height="60" as="geometry" />
        </mxCell>
        <mxCell id="cJ2IQbuwEGZ2H1-RjROX-9" value="&lt;span style=&quot;color: rgb(0, 0, 0); font-family: Helvetica; font-size: 12px; font-style: normal; font-variant-ligatures: normal; font-variant-caps: normal; font-weight: 400; letter-spacing: normal; orphans: 2; text-align: center; text-indent: 0px; text-transform: none; widows: 2; word-spacing: 0px; -webkit-text-stroke-width: 0px; background-color: rgb(251, 251, 251); text-decoration-thickness: initial; text-decoration-style: initial; text-decoration-color: initial; float: none; display: inline !important;&quot;&gt;친구 팔로우&lt;/span&gt;" style="ellipse;whiteSpace=wrap;html=1;" vertex="1" parent="1">
          <mxGeometry x="730" y="310" width="80" height="40" as="geometry" />
        </mxCell>
        <mxCell id="cJ2IQbuwEGZ2H1-RjROX-12" value="" style="endArrow=classic;html=1;rounded=0;entryX=0.45;entryY=-0.1;entryDx=0;entryDy=0;entryPerimeter=0;" edge="1" parent="1">
          <mxGeometry width="50" height="50" relative="1" as="geometry">
            <mxPoint x="410" y="220" as="sourcePoint" />
            <mxPoint x="411" y="469.3000000000002" as="targetPoint" />
            <Array as="points">
              <mxPoint x="410" y="360" />
            </Array>
          </mxGeometry>
        </mxCell>
        <mxCell id="cJ2IQbuwEGZ2H1-RjROX-14" value="" style="endArrow=classic;html=1;rounded=0;" edge="1" parent="1" target="cJ2IQbuwEGZ2H1-RjROX-6">
          <mxGeometry width="50" height="50" relative="1" as="geometry">
            <mxPoint x="430" y="220" as="sourcePoint" />
            <mxPoint x="440" y="340" as="targetPoint" />
          </mxGeometry>
        </mxCell>
        <mxCell id="cJ2IQbuwEGZ2H1-RjROX-15" value="" style="endArrow=classic;html=1;rounded=0;" edge="1" parent="1" target="cJ2IQbuwEGZ2H1-RjROX-8">
          <mxGeometry width="50" height="50" relative="1" as="geometry">
            <mxPoint x="460" y="210" as="sourcePoint" />
            <mxPoint x="440" y="340" as="targetPoint" />
          </mxGeometry>
        </mxCell>
        <mxCell id="cJ2IQbuwEGZ2H1-RjROX-17" value="" style="endArrow=classic;html=1;rounded=0;" edge="1" parent="1" target="cJ2IQbuwEGZ2H1-RjROX-4">
          <mxGeometry width="50" height="50" relative="1" as="geometry">
            <mxPoint x="370" y="210" as="sourcePoint" />
            <mxPoint x="460" y="340" as="targetPoint" />
          </mxGeometry>
        </mxCell>
        <mxCell id="cJ2IQbuwEGZ2H1-RjROX-18" value="" style="endArrow=classic;html=1;rounded=0;entryX=0.642;entryY=0;entryDx=0;entryDy=0;entryPerimeter=0;" edge="1" parent="1" target="cJ2IQbuwEGZ2H1-RjROX-3">
          <mxGeometry width="50" height="50" relative="1" as="geometry">
            <mxPoint x="370" y="170" as="sourcePoint" />
            <mxPoint x="460" y="340" as="targetPoint" />
            <Array as="points" />
          </mxGeometry>
        </mxCell>
        <mxCell id="cJ2IQbuwEGZ2H1-RjROX-19" value="" style="curved=1;endArrow=classic;html=1;rounded=0;" edge="1" parent="1">
          <mxGeometry width="50" height="50" relative="1" as="geometry">
            <mxPoint x="370" y="160" as="sourcePoint" />
            <mxPoint x="70" y="354" as="targetPoint" />
            <Array as="points">
              <mxPoint x="200" y="154" />
              <mxPoint x="90" y="254" />
            </Array>
          </mxGeometry>
        </mxCell>
        <mxCell id="cJ2IQbuwEGZ2H1-RjROX-20" value="마이프로필등록" style="ellipse;whiteSpace=wrap;html=1;" vertex="1" parent="1">
          <mxGeometry x="670" y="390" width="120" height="40" as="geometry" />
        </mxCell>
        <mxCell id="cJ2IQbuwEGZ2H1-RjROX-22" value="" style="curved=1;endArrow=classic;html=1;rounded=0;entryX=0.5;entryY=0;entryDx=0;entryDy=0;" edge="1" parent="1" target="cJ2IQbuwEGZ2H1-RjROX-20">
          <mxGeometry width="50" height="50" relative="1" as="geometry">
            <mxPoint x="440" y="160" as="sourcePoint" />
            <mxPoint x="703" y="430" as="targetPoint" />
            <Array as="points">
              <mxPoint x="510" y="160" />
              <mxPoint x="650" y="218" />
              <mxPoint x="720" y="318" />
            </Array>
          </mxGeometry>
        </mxCell>
        <mxCell id="cJ2IQbuwEGZ2H1-RjROX-25" value="" style="curved=1;endArrow=classic;html=1;rounded=0;" edge="1" parent="1">
          <mxGeometry width="50" height="50" relative="1" as="geometry">
            <mxPoint x="440" y="160" as="sourcePoint" />
            <mxPoint x="760" y="310" as="targetPoint" />
            <Array as="points">
              <mxPoint x="440" y="160" />
              <mxPoint x="450" y="150" />
              <mxPoint x="560" y="140" />
              <mxPoint x="680" y="202" />
              <mxPoint x="760" y="292" />
            </Array>
          </mxGeometry>
        </mxCell>
        <mxCell id="cJ2IQbuwEGZ2H1-RjROX-29" value="댓글기능" style="ellipse;whiteSpace=wrap;html=1;" vertex="1" parent="1">
          <mxGeometry x="620" y="345" width="90" height="40" as="geometry" />
        </mxCell>
        <mxCell id="cJ2IQbuwEGZ2H1-RjROX-31" value="" style="curved=1;endArrow=classic;html=1;rounded=0;" edge="1" parent="1">
          <mxGeometry width="50" height="50" relative="1" as="geometry">
            <mxPoint x="440" y="160" as="sourcePoint" />
            <mxPoint x="650" y="340" as="targetPoint" />
            <Array as="points">
              <mxPoint x="450" y="160" />
              <mxPoint x="500" y="180" />
              <mxPoint x="630" y="290" />
            </Array>
          </mxGeometry>
        </mxCell>
        <mxCell id="ZuBwCco3BjXrB2926MJY-1" value="회원가입" style="ellipse;whiteSpace=wrap;html=1;" vertex="1" parent="1">
          <mxGeometry x="110" y="280" width="100" height="40" as="geometry" />
        </mxCell>
        <mxCell id="ZuBwCco3BjXrB2926MJY-4" value="" style="endArrow=classic;html=1;rounded=0;entryX=1;entryY=0;entryDx=0;entryDy=0;" edge="1" parent="1" target="ZuBwCco3BjXrB2926MJY-1">
          <mxGeometry width="50" height="50" relative="1" as="geometry">
            <mxPoint x="370" y="160" as="sourcePoint" />
            <mxPoint x="221.77999999999997" y="230" as="targetPoint" />
            <Array as="points">
              <mxPoint x="260" y="230" />
            </Array>
          </mxGeometry>
        </mxCell>
      </root>
    </mxGraphModel>
  </diagram>
</mxfile>
